<svg
  width="47"
  height="32"
  viewBox="0 0 47 32"
  fill="none"
  xmlns="http://www.w3.org/2000/svg"
>
  <path
    d="M13.994 32H6.712a6.64 6.64 0 0 1-5.794-3.332 6.635 6.635 0 0 1-.032-6.684l1.148-2.018L9.753 7.073a6.65 6.65 0 0 1 5.745-3.261h.006a6.65 6.65 0 0 1 5.746 3.252l2.193 3.65 3.898-7.201A6.699 6.699 0 0 1 33.237 0h6.621c2.421 0 4.59 1.25 5.802 3.345a6.637 6.637 0 0 1 .012 6.696l-8.417 14.66a6.644 6.644 0 0 1-5.748 3.365h-.07a6.644 6.644 0 0 1-5.743-3.251l-2.01-3.343-3.795 7.013a6.699 6.699 0 0 1-5.896 3.513l.001.002Zm-7.37-9.321-1.102 1.94a1.346 1.346 0 0 0 .007 1.367c.12.204.473.682 1.185.682h7.282c.503 0 .965-.276 1.205-.718l5.296-9.785-3.817-6.353c-.36-.6-.94-.664-1.174-.664-.233 0-.815.066-1.175.666L6.628 22.679h-.003Zm20.01-6.652 3.63 6.043c.366.607.962.666 1.19.664a1.344 1.344 0 0 0 1.174-.687l8.417-14.66a1.352 1.352 0 0 0-.001-1.37 1.348 1.348 0 0 0-1.188-.683h-6.62a1.37 1.37 0 0 0-1.206.718l-5.398 9.973.002.002Z"
    fill="url(#paint0_linear)"
  />
  <defs>
    <linearGradient
      id="paint0_linear"
      x1="0"
      y1="16"
      x2="46.573"
      y2="16"
      gradientUnits="userSpaceOnUse"
    >
      <stop stop-color="#0497B9" />
      <stop offset="0.11" stop-color="#03A8BA" />
      <stop offset="0.37" stop-color="#01CDBE" />
      <stop offset="0.62" stop-color="#00E8C1" />
      <stop offset="0.83" stop-color="#00F9C3" />
      <stop offset="1" stop-color="#00FFC4" />
    </linearGradient>
  </defs>
</svg>
