<svg width="155" height="32" viewBox="0 0 155 32" fill="none" xmlns="http://www.w3.org/2000/svg">
  <g clip-path="url(#clip0)">
    <path d="M57.882 15.665v9.782h-4.596V8.44h4.458v2.11c.483-.83 1.175-1.463 2.073-1.902a6.402 6.402 0 0 1 2.835-.657c2.005 0 3.53.629 4.58 1.884 1.047 1.257 1.572 2.875 1.572 4.855v10.715h-4.596v-9.92c0-1.013-.26-1.831-.777-2.454-.52-.623-1.31-.933-2.367-.933-.969 0-1.74.335-2.316 1.003-.576.67-.864 1.509-.864 2.522l-.002.002Zm15.696-5.185c1.693-1.705 3.819-2.557 6.377-2.557 2.559 0 4.684.852 6.378 2.557 1.694 1.706 2.54 3.86 2.54 6.464 0 2.603-.846 4.759-2.54 6.463-1.694 1.707-3.819 2.559-6.378 2.559-2.558 0-4.684-.852-6.377-2.559-1.694-1.704-2.541-3.858-2.541-6.463 0-2.606.847-4.758 2.54-6.464Zm3.317 10.023c.842.852 1.86 1.279 3.059 1.279 1.198 0 2.216-.427 3.058-1.279.841-.852 1.262-2.04 1.262-3.56s-.42-2.707-1.262-3.559c-.842-.852-1.86-1.278-3.058-1.278-1.198 0-2.219.426-3.059 1.278-.841.852-1.262 2.04-1.262 3.56s.42 2.707 1.262 3.56ZM106.636 8.44l-6.602 17.007h-4.596L88.49 8.44h5.047l4.217 11.406L101.8 8.44h4.839-.003Zm13.697 17.007c-.093-.46-.138-1.071-.138-1.832-.439.761-1.088 1.33-1.953 1.712-.865.38-1.78.57-2.749.57-2.005 0-3.583-.638-4.736-1.917-1.153-1.278-1.727-2.873-1.727-4.788V8.442h4.596v9.816c0 1.015.265 1.837.795 2.47.53.635 1.301.951 2.315.951 1.013 0 1.774-.304 2.351-.916.576-.61.865-1.424.865-2.437V8.44h4.596v13.93c0 1.084.057 2.11.174 3.077h-4.391.002Zm11.182 0h-4.598V.423h4.598v25.026-.002Zm2.276-22.571c0-.783.275-1.458.829-2.022a2.705 2.705 0 0 1 2.005-.847 2.73 2.73 0 0 1 2.005.83c.554.552.829 1.233.829 2.039 0 .76-.275 1.416-.829 1.97a2.73 2.73 0 0 1-2.005.828 2.73 2.73 0 0 1-2.005-.829c-.554-.553-.829-1.21-.829-1.97Zm5.149 22.57h-4.596V8.44h4.596v17.007Zm2.301-4.736 3.941-.864c.046.738.34 1.354.881 1.85.541.496 1.284.743 2.229.743.714 0 1.268-.162 1.66-.484.392-.322.587-.725.587-1.21 0-.852-.61-1.406-1.832-1.66l-2.247-.52c-1.59-.345-2.782-.966-3.577-1.865-.795-.899-1.193-1.97-1.193-3.214 0-1.543.606-2.857 1.816-3.94 1.21-1.084 2.725-1.625 4.546-1.625 1.151 0 2.167.169 3.042.502.876.334 1.556.76 2.04 1.278.483.52.852 1.042 1.106 1.572.254.53.415 1.05.484 1.556l-3.838.865a2.874 2.874 0 0 0-.812-1.59c-.45-.46-1.112-.691-1.988-.691-.6 0-1.112.16-1.538.483-.426.322-.639.725-.639 1.21 0 .83.519 1.336 1.556 1.52l2.419.52c1.636.345 2.886.98 3.749 1.901.865.923 1.296 2.03 1.296 3.318 0 1.52-.576 2.835-1.727 3.941-1.154 1.107-2.778 1.66-4.874 1.66-1.198 0-2.271-.18-3.214-.535-.946-.357-1.676-.819-2.195-1.383-.52-.564-.912-1.128-1.175-1.693a5.587 5.587 0 0 1-.501-1.642l-.002-.002Z" fill="white"/>
    <path d="M13.994 32H6.712a6.64 6.64 0 0 1-5.794-3.332 6.635 6.635 0 0 1-.032-6.684l1.148-2.018L9.753 7.073a6.65 6.65 0 0 1 5.745-3.261h.006a6.65 6.65 0 0 1 5.746 3.252l2.193 3.65 3.898-7.201A6.699 6.699 0 0 1 33.237 0h6.621c2.421 0 4.59 1.25 5.802 3.345a6.637 6.637 0 0 1 .012 6.696l-8.417 14.66a6.644 6.644 0 0 1-5.748 3.365h-.07a6.644 6.644 0 0 1-5.743-3.251l-2.01-3.343-3.795 7.013a6.699 6.699 0 0 1-5.896 3.513l.001.002Zm-7.37-9.321-1.102 1.94a1.346 1.346 0 0 0 .007 1.367c.12.204.473.682 1.185.682h7.282c.503 0 .965-.276 1.205-.718l5.296-9.785-3.817-6.353c-.36-.6-.94-.664-1.174-.664-.233 0-.815.066-1.175.666L6.628 22.679h-.003Zm20.01-6.652 3.63 6.043c.366.607.962.666 1.19.664a1.344 1.344 0 0 0 1.174-.687l8.417-14.66a1.352 1.352 0 0 0-.001-1.37 1.348 1.348 0 0 0-1.188-.683h-6.62a1.37 1.37 0 0 0-1.206.718l-5.398 9.973.002.002Z" fill="url(#paint0_linear)"/>
  </g>
  <defs>
    <linearGradient id="paint0_linear" x1="0" y1="16" x2="46.573" y2="16" gradientUnits="userSpaceOnUse">
      <stop stop-color="#0497B9"/>
      <stop offset="0.11" stop-color="#03A8BA"/>
      <stop offset="0.37" stop-color="#01CDBE"/>
      <stop offset="0.62" stop-color="#00E8C1"/>
      <stop offset="0.83" stop-color="#00F9C3"/>
      <stop offset="1" stop-color="#00FFC4"/>
    </linearGradient>
    <clipPath id="clip0">
      <path fill="white" d="M0 0h154.929v32H0z"/>
    </clipPath>
  </defs>
</svg>
